<?xml version="1.0" encoding="UTF-8" standalone="no"?>
<!DOCTYPE svg PUBLIC "-//W3C//DTD SVG 1.1//EN"
 "http://www.w3.org/Graphics/SVG/1.1/DTD/svg11.dtd">
<!-- Generated by graphviz version 5.0.0 (20220707.1540)
 -->
<!-- Title: dependencies Pages: 1 -->
<svg width="680pt" height="247pt"
 viewBox="0.00 0.00 680.00 246.80" xmlns="http://www.w3.org/2000/svg" xmlns:xlink="http://www.w3.org/1999/xlink">
<g id="graph0" class="graph" transform="scale(1 1) rotate(0) translate(4 242.8)">
<title>dependencies</title>
<polygon fill="white" stroke="transparent" points="-4,4 -4,-242.8 676,-242.8 676,4 -4,4"/>
<text text-anchor="middle" x="336" y="-8.2" font-family="sans-serif" font-size="14.00">dependencies</text>
<g id="clust1" class="cluster">
<title>cluster_CoreModule</title>
<polygon fill="none" stroke="black" stroke-dasharray="1,5" points="8,-32.8 8,-230.8 664,-230.8 664,-32.8 8,-32.8"/>
</g>
<g id="clust7" class="cluster">
<title>cluster_CoreModule_exports</title>
<polygon fill="none" stroke="black" points="106,-170.8 106,-222.8 524,-222.8 524,-170.8 106,-170.8"/>
</g>
<g id="clust2" class="cluster">
<title>cluster_CoreModule_declarations</title>
<polygon fill="none" stroke="black" points="248,-40.8 248,-92.8 656,-92.8 656,-40.8 248,-40.8"/>
</g>
<g id="clust6" class="cluster">
<title>cluster_CoreModule_imports</title>
<polygon fill="none" stroke="black" points="16,-40.8 16,-92.8 240,-92.8 240,-40.8 16,-40.8"/>
</g>
<!-- FooterComponent -->
<g id="node1" class="node">
<title>FooterComponent</title>
<polygon fill="#ffffb3" stroke="black" points="647.88,-84.8 530.12,-84.8 530.12,-48.8 647.88,-48.8 647.88,-84.8"/>
<text text-anchor="middle" x="589" y="-62.6" font-family="Times,serif" font-size="14.00">FooterComponent</text>
</g>
<!-- CoreModule -->
<g id="node4" class="node">
<title>CoreModule</title>
<polygon fill="#8dd3c7" stroke="black" points="357.27,-149.8 354.27,-153.8 333.27,-153.8 330.27,-149.8 270.73,-149.8 270.73,-113.8 357.27,-113.8 357.27,-149.8"/>
<text text-anchor="middle" x="314" y="-127.6" font-family="Times,serif" font-size="14.00">CoreModule</text>
</g>
<!-- FooterComponent&#45;&gt;CoreModule -->
<g id="edge1" class="edge">
<title>FooterComponent&#45;&gt;CoreModule</title>
<path fill="none" stroke="black" d="M589,-84.91C589,-104.14 589,-131.8 589,-131.8 589,-131.8 367.27,-131.8 367.27,-131.8"/>
<polygon fill="black" stroke="black" points="367.27,-128.3 357.27,-131.8 367.27,-135.3 367.27,-128.3"/>
</g>
<!-- HeaderComponent -->
<g id="node2" class="node">
<title>HeaderComponent</title>
<polygon fill="#ffffb3" stroke="black" points="511.75,-84.8 390.25,-84.8 390.25,-48.8 511.75,-48.8 511.75,-84.8"/>
<text text-anchor="middle" x="451" y="-62.6" font-family="Times,serif" font-size="14.00">HeaderComponent</text>
</g>
<!-- HeaderComponent&#45;&gt;CoreModule -->
<g id="edge2" class="edge">
<title>HeaderComponent&#45;&gt;CoreModule</title>
<path fill="none" stroke="black" d="M472.68,-84.83C472.68,-101.2 472.68,-122.8 472.68,-122.8 472.68,-122.8 367.36,-122.8 367.36,-122.8"/>
<polygon fill="black" stroke="black" points="367.36,-119.3 357.36,-122.8 367.36,-126.3 367.36,-119.3"/>
</g>
<!-- HomeComponent -->
<g id="node3" class="node">
<title>HomeComponent</title>
<polygon fill="#ffffb3" stroke="black" points="371.55,-84.8 256.45,-84.8 256.45,-48.8 371.55,-48.8 371.55,-84.8"/>
<text text-anchor="middle" x="314" y="-62.6" font-family="Times,serif" font-size="14.00">HomeComponent</text>
</g>
<!-- HomeComponent&#45;&gt;CoreModule -->
<g id="edge3" class="edge">
<title>HomeComponent&#45;&gt;CoreModule</title>
<path fill="none" stroke="black" d="M314,-84.91C314,-84.91 314,-103.79 314,-103.79"/>
<polygon fill="black" stroke="black" points="310.5,-103.79 314,-113.79 317.5,-103.79 310.5,-103.79"/>
</g>
<!-- FooterComponent  -->
<g id="node7" class="node">
<title>FooterComponent </title>
<polygon fill="#fb8072" stroke="black" points="515.88,-214.8 394.12,-214.8 394.12,-178.8 515.88,-178.8 515.88,-214.8"/>
<text text-anchor="middle" x="455" y="-192.6" font-family="Times,serif" font-size="14.00">FooterComponent </text>
</g>
<!-- CoreModule&#45;&gt;FooterComponent  -->
<g id="edge6" class="edge">
<title>CoreModule&#45;&gt;FooterComponent </title>
<path fill="none" stroke="black" stroke-dasharray="5,2" d="M357.48,-140.8C391.65,-140.8 433.5,-140.8 433.5,-140.8 433.5,-140.8 433.5,-168.77 433.5,-168.77"/>
<polygon fill="black" stroke="black" points="430,-168.77 433.5,-178.77 437,-168.77 430,-168.77"/>
</g>
<!-- HeaderComponent  -->
<g id="node8" class="node">
<title>HeaderComponent </title>
<polygon fill="#fb8072" stroke="black" points="376.75,-214.8 251.25,-214.8 251.25,-178.8 376.75,-178.8 376.75,-214.8"/>
<text text-anchor="middle" x="314" y="-192.6" font-family="Times,serif" font-size="14.00">HeaderComponent </text>
</g>
<!-- CoreModule&#45;&gt;HeaderComponent  -->
<g id="edge7" class="edge">
<title>CoreModule&#45;&gt;HeaderComponent </title>
<path fill="none" stroke="black" stroke-dasharray="5,2" d="M314,-149.91C314,-149.91 314,-168.79 314,-168.79"/>
<polygon fill="black" stroke="black" points="310.5,-168.79 314,-178.79 317.5,-168.79 310.5,-168.79"/>
</g>
<!-- HomeComponent  -->
<g id="node9" class="node">
<title>HomeComponent </title>
<polygon fill="#fb8072" stroke="black" points="233.54,-214.8 114.46,-214.8 114.46,-178.8 233.54,-178.8 233.54,-214.8"/>
<text text-anchor="middle" x="174" y="-192.6" font-family="Times,serif" font-size="14.00">HomeComponent </text>
</g>
<!-- CoreModule&#45;&gt;HomeComponent  -->
<g id="edge8" class="edge">
<title>CoreModule&#45;&gt;HomeComponent </title>
<path fill="none" stroke="black" stroke-dasharray="5,2" d="M270.57,-140.8C227.09,-140.8 166.6,-140.8 166.6,-140.8 166.6,-140.8 166.6,-168.77 166.6,-168.77"/>
<polygon fill="black" stroke="black" points="163.1,-168.77 166.6,-178.77 170.1,-168.77 163.1,-168.77"/>
</g>
<!-- SharedModule -->
<g id="node5" class="node">
<title>SharedModule</title>
<polygon fill="#8dd3c7" stroke="black" points="232.43,-84.8 229.43,-88.8 208.43,-88.8 205.43,-84.8 133.57,-84.8 133.57,-48.8 232.43,-48.8 232.43,-84.8"/>
<text text-anchor="middle" x="183" y="-62.6" font-family="Times,serif" font-size="14.00">SharedModule</text>
</g>
<!-- SharedModule&#45;&gt;CoreModule -->
<g id="edge4" class="edge">
<title>SharedModule&#45;&gt;CoreModule</title>
<path fill="none" stroke="black" d="M199.4,-84.83C199.4,-101.2 199.4,-122.8 199.4,-122.8 199.4,-122.8 260.68,-122.8 260.68,-122.8"/>
<polygon fill="black" stroke="black" points="260.68,-126.3 270.68,-122.8 260.68,-119.3 260.68,-126.3"/>
</g>
<!-- UsersModule -->
<g id="node6" class="node">
<title>UsersModule</title>
<polygon fill="#8dd3c7" stroke="black" points="115.94,-84.8 112.94,-88.8 91.94,-88.8 88.94,-84.8 24.06,-84.8 24.06,-48.8 115.94,-48.8 115.94,-84.8"/>
<text text-anchor="middle" x="70" y="-62.6" font-family="Times,serif" font-size="14.00">UsersModule</text>
</g>
<!-- UsersModule&#45;&gt;CoreModule -->
<g id="edge5" class="edge">
<title>UsersModule&#45;&gt;CoreModule</title>
<path fill="none" stroke="black" d="M69.38,-84.91C69.38,-104.14 69.38,-131.8 69.38,-131.8 69.38,-131.8 260.55,-131.8 260.55,-131.8"/>
<polygon fill="black" stroke="black" points="260.55,-135.3 270.55,-131.8 260.55,-128.3 260.55,-135.3"/>
</g>
</g>
</svg>
