<?xml version="1.0" encoding="UTF-8" standalone="no"?>
<!DOCTYPE svg PUBLIC "-//W3C//DTD SVG 1.1//EN"
 "http://www.w3.org/Graphics/SVG/1.1/DTD/svg11.dtd">
<!-- Generated by graphviz version 5.0.0 (20220707.1540)
 -->
<!-- Title: dependencies Pages: 1 -->
<svg width="425pt" height="247pt"
 viewBox="0.00 0.00 425.00 246.80" xmlns="http://www.w3.org/2000/svg" xmlns:xlink="http://www.w3.org/1999/xlink">
<g id="graph0" class="graph" transform="scale(1 1) rotate(0) translate(4 242.8)">
<title>dependencies</title>
<polygon fill="white" stroke="transparent" points="-4,4 -4,-242.8 421,-242.8 421,4 -4,4"/>
<text text-anchor="middle" x="208.5" y="-8.2" font-family="sans-serif" font-size="14.00">dependencies</text>
<g id="clust1" class="cluster">
<title>cluster_SharedModule</title>
<polygon fill="none" stroke="black" stroke-dasharray="1,5" points="8,-32.8 8,-230.8 409,-230.8 409,-32.8 8,-32.8"/>
</g>
<g id="clust5" class="cluster">
<title>cluster_SharedModule_imports</title>
<polygon fill="none" stroke="black" points="257,-40.8 257,-92.8 401,-92.8 401,-40.8 257,-40.8"/>
</g>
<g id="clust6" class="cluster">
<title>cluster_SharedModule_exports</title>
<polygon fill="none" stroke="black" points="74,-170.8 74,-222.8 314,-222.8 314,-170.8 74,-170.8"/>
</g>
<g id="clust2" class="cluster">
<title>cluster_SharedModule_declarations</title>
<polygon fill="none" stroke="black" points="16,-40.8 16,-92.8 249,-92.8 249,-40.8 16,-40.8"/>
</g>
<!-- PopUpComponent -->
<g id="node1" class="node">
<title>PopUpComponent</title>
<polygon fill="#ffffb3" stroke="black" points="241.23,-84.8 120.77,-84.8 120.77,-48.8 241.23,-48.8 241.23,-84.8"/>
<text text-anchor="middle" x="181" y="-62.6" font-family="Times,serif" font-size="14.00">PopUpComponent</text>
</g>
<!-- SharedModule -->
<g id="node3" class="node">
<title>SharedModule</title>
<polygon fill="#8dd3c7" stroke="black" points="230.43,-149.8 227.43,-153.8 206.43,-153.8 203.43,-149.8 131.57,-149.8 131.57,-113.8 230.43,-113.8 230.43,-149.8"/>
<text text-anchor="middle" x="181" y="-127.6" font-family="Times,serif" font-size="14.00">SharedModule</text>
</g>
<!-- PopUpComponent&#45;&gt;SharedModule -->
<g id="edge1" class="edge">
<title>PopUpComponent&#45;&gt;SharedModule</title>
<path fill="none" stroke="black" d="M181,-84.91C181,-84.91 181,-103.79 181,-103.79"/>
<polygon fill="black" stroke="black" points="177.5,-103.79 181,-113.79 184.5,-103.79 177.5,-103.79"/>
</g>
<!-- SearchPipe -->
<g id="node2" class="node">
<title>SearchPipe</title>
<polygon fill="#ffffb3" stroke="black" points="102.48,-84.8 23.52,-84.8 23.52,-48.8 102.48,-48.8 102.48,-84.8"/>
<text text-anchor="middle" x="63" y="-62.6" font-family="Times,serif" font-size="14.00">SearchPipe</text>
</g>
<!-- SearchPipe&#45;&gt;SharedModule -->
<g id="edge2" class="edge">
<title>SearchPipe&#45;&gt;SharedModule</title>
<path fill="none" stroke="black" d="M92.12,-84.91C92.12,-104.14 92.12,-131.8 92.12,-131.8 92.12,-131.8 121.62,-131.8 121.62,-131.8"/>
<polygon fill="black" stroke="black" points="121.62,-135.3 131.62,-131.8 121.62,-128.3 121.62,-135.3"/>
</g>
<!-- PopUpComponent  -->
<g id="node5" class="node">
<title>PopUpComponent </title>
<polygon fill="#fb8072" stroke="black" points="305.73,-214.8 182.27,-214.8 182.27,-178.8 305.73,-178.8 305.73,-214.8"/>
<text text-anchor="middle" x="244" y="-192.6" font-family="Times,serif" font-size="14.00">PopUpComponent </text>
</g>
<!-- SharedModule&#45;&gt;PopUpComponent  -->
<g id="edge4" class="edge">
<title>SharedModule&#45;&gt;PopUpComponent </title>
<path fill="none" stroke="black" stroke-dasharray="5,2" d="M206.18,-149.91C206.18,-149.91 206.18,-168.79 206.18,-168.79"/>
<polygon fill="black" stroke="black" points="202.68,-168.79 206.18,-178.79 209.68,-168.79 202.68,-168.79"/>
</g>
<!-- SearchPipe  -->
<g id="node6" class="node">
<title>SearchPipe </title>
<polygon fill="#fb8072" stroke="black" points="164.48,-214.8 81.52,-214.8 81.52,-178.8 164.48,-178.8 164.48,-214.8"/>
<text text-anchor="middle" x="123" y="-192.6" font-family="Times,serif" font-size="14.00">SearchPipe </text>
</g>
<!-- SharedModule&#45;&gt;SearchPipe  -->
<g id="edge5" class="edge">
<title>SharedModule&#45;&gt;SearchPipe </title>
<path fill="none" stroke="black" stroke-dasharray="5,2" d="M148.01,-149.91C148.01,-149.91 148.01,-168.79 148.01,-168.79"/>
<polygon fill="black" stroke="black" points="144.51,-168.79 148.01,-178.79 151.51,-168.79 144.51,-168.79"/>
</g>
<!-- AppRoutingModule -->
<g id="node4" class="node">
<title>AppRoutingModule</title>
<polygon fill="#8dd3c7" stroke="black" points="393.28,-84.8 390.28,-88.8 369.28,-88.8 366.28,-84.8 264.72,-84.8 264.72,-48.8 393.28,-48.8 393.28,-84.8"/>
<text text-anchor="middle" x="329" y="-62.6" font-family="Times,serif" font-size="14.00">AppRoutingModule</text>
</g>
<!-- AppRoutingModule&#45;&gt;SharedModule -->
<g id="edge3" class="edge">
<title>AppRoutingModule&#45;&gt;SharedModule</title>
<path fill="none" stroke="black" d="M285.24,-84.91C285.24,-104.14 285.24,-131.8 285.24,-131.8 285.24,-131.8 240.37,-131.8 240.37,-131.8"/>
<polygon fill="black" stroke="black" points="240.37,-128.3 230.37,-131.8 240.37,-135.3 240.37,-128.3"/>
</g>
</g>
</svg>
