<?xml version="1.0" encoding="UTF-8" standalone="no"?>
<!DOCTYPE svg PUBLIC "-//W3C//DTD SVG 1.1//EN"
 "http://www.w3.org/Graphics/SVG/1.1/DTD/svg11.dtd">
<!-- Generated by graphviz version 5.0.0 (20220707.1540)
 -->
<!-- Title: dependencies Pages: 1 -->
<svg width="772pt" height="247pt"
 viewBox="0.00 0.00 772.00 246.80" xmlns="http://www.w3.org/2000/svg" xmlns:xlink="http://www.w3.org/1999/xlink">
<g id="graph0" class="graph" transform="scale(1 1) rotate(0) translate(4 242.8)">
<title>dependencies</title>
<polygon fill="white" stroke="transparent" points="-4,4 -4,-242.8 768,-242.8 768,4 -4,4"/>
<text text-anchor="middle" x="382" y="-8.2" font-family="sans-serif" font-size="14.00">dependencies</text>
<g id="clust1" class="cluster">
<title>cluster_UsersModule</title>
<polygon fill="none" stroke="black" stroke-dasharray="1,5" points="8,-32.8 8,-230.8 756,-230.8 756,-32.8 8,-32.8"/>
</g>
<g id="clust8" class="cluster">
<title>cluster_UsersModule_exports</title>
<polygon fill="none" stroke="black" points="70,-170.8 70,-222.8 695,-222.8 695,-170.8 70,-170.8"/>
</g>
<g id="clust2" class="cluster">
<title>cluster_UsersModule_declarations</title>
<polygon fill="none" stroke="black" points="138,-40.8 138,-92.8 748,-92.8 748,-40.8 138,-40.8"/>
</g>
<g id="clust7" class="cluster">
<title>cluster_UsersModule_imports</title>
<polygon fill="none" stroke="black" points="16,-40.8 16,-92.8 130,-92.8 130,-40.8 16,-40.8"/>
</g>
<!-- LoginComponent -->
<g id="node1" class="node">
<title>LoginComponent</title>
<polygon fill="#ffffb3" stroke="black" points="740.27,-84.8 625.73,-84.8 625.73,-48.8 740.27,-48.8 740.27,-84.8"/>
<text text-anchor="middle" x="683" y="-62.6" font-family="Times,serif" font-size="14.00">LoginComponent</text>
</g>
<!-- UsersModule -->
<g id="node5" class="node">
<title>UsersModule</title>
<polygon fill="#8dd3c7" stroke="black" points="419.94,-149.8 416.94,-153.8 395.94,-153.8 392.94,-149.8 328.06,-149.8 328.06,-113.8 419.94,-113.8 419.94,-149.8"/>
<text text-anchor="middle" x="374" y="-127.6" font-family="Times,serif" font-size="14.00">UsersModule</text>
</g>
<!-- LoginComponent&#45;&gt;UsersModule -->
<g id="edge1" class="edge">
<title>LoginComponent&#45;&gt;UsersModule</title>
<path fill="none" stroke="black" d="M656.38,-84.91C656.38,-104.14 656.38,-131.8 656.38,-131.8 656.38,-131.8 430,-131.8 430,-131.8"/>
<polygon fill="black" stroke="black" points="430,-128.3 420,-131.8 430,-135.3 430,-128.3"/>
</g>
<!-- MembershipComponent -->
<g id="node2" class="node">
<title>MembershipComponent</title>
<polygon fill="#ffffb3" stroke="black" points="608.1,-84.8 455.9,-84.8 455.9,-48.8 608.1,-48.8 608.1,-84.8"/>
<text text-anchor="middle" x="532" y="-62.6" font-family="Times,serif" font-size="14.00">MembershipComponent</text>
</g>
<!-- MembershipComponent&#45;&gt;UsersModule -->
<g id="edge2" class="edge">
<title>MembershipComponent&#45;&gt;UsersModule</title>
<path fill="none" stroke="black" d="M503.38,-84.83C503.38,-101.2 503.38,-122.8 503.38,-122.8 503.38,-122.8 429.98,-122.8 429.98,-122.8"/>
<polygon fill="black" stroke="black" points="429.98,-119.3 419.98,-122.8 429.98,-126.3 429.98,-119.3"/>
</g>
<!-- RegisterComponent -->
<g id="node3" class="node">
<title>RegisterComponent</title>
<polygon fill="#ffffb3" stroke="black" points="437.99,-84.8 310.01,-84.8 310.01,-48.8 437.99,-48.8 437.99,-84.8"/>
<text text-anchor="middle" x="374" y="-62.6" font-family="Times,serif" font-size="14.00">RegisterComponent</text>
</g>
<!-- RegisterComponent&#45;&gt;UsersModule -->
<g id="edge3" class="edge">
<title>RegisterComponent&#45;&gt;UsersModule</title>
<path fill="none" stroke="black" d="M374,-84.91C374,-84.91 374,-103.79 374,-103.79"/>
<polygon fill="black" stroke="black" points="370.5,-103.79 374,-113.79 377.5,-103.79 370.5,-103.79"/>
</g>
<!-- UserProfileComponent -->
<g id="node4" class="node">
<title>UserProfileComponent</title>
<polygon fill="#ffffb3" stroke="black" points="291.87,-84.8 146.13,-84.8 146.13,-48.8 291.87,-48.8 291.87,-84.8"/>
<text text-anchor="middle" x="219" y="-62.6" font-family="Times,serif" font-size="14.00">UserProfileComponent</text>
</g>
<!-- UserProfileComponent&#45;&gt;UsersModule -->
<g id="edge4" class="edge">
<title>UserProfileComponent&#45;&gt;UsersModule</title>
<path fill="none" stroke="black" d="M268.6,-84.83C268.6,-101.2 268.6,-122.8 268.6,-122.8 268.6,-122.8 318.07,-122.8 318.07,-122.8"/>
<polygon fill="black" stroke="black" points="318.07,-126.3 328.07,-122.8 318.07,-119.3 318.07,-126.3"/>
</g>
<!-- LoginComponent  -->
<g id="node7" class="node">
<title>LoginComponent </title>
<polygon fill="#fb8072" stroke="black" points="687.27,-214.8 568.73,-214.8 568.73,-178.8 687.27,-178.8 687.27,-214.8"/>
<text text-anchor="middle" x="628" y="-192.6" font-family="Times,serif" font-size="14.00">LoginComponent </text>
</g>
<!-- UsersModule&#45;&gt;LoginComponent  -->
<g id="edge6" class="edge">
<title>UsersModule&#45;&gt;LoginComponent </title>
<path fill="none" stroke="black" stroke-dasharray="5,2" d="M419.74,-140.8C482.73,-140.8 588.46,-140.8 588.46,-140.8 588.46,-140.8 588.46,-168.77 588.46,-168.77"/>
<polygon fill="black" stroke="black" points="584.96,-168.77 588.46,-178.77 591.96,-168.77 584.96,-168.77"/>
</g>
<!-- MembershipComponent  -->
<g id="node8" class="node">
<title>MembershipComponent </title>
<polygon fill="#fb8072" stroke="black" points="550.6,-214.8 395.4,-214.8 395.4,-178.8 550.6,-178.8 550.6,-214.8"/>
<text text-anchor="middle" x="473" y="-192.6" font-family="Times,serif" font-size="14.00">MembershipComponent </text>
</g>
<!-- UsersModule&#45;&gt;MembershipComponent  -->
<g id="edge7" class="edge">
<title>UsersModule&#45;&gt;MembershipComponent </title>
<path fill="none" stroke="black" stroke-dasharray="5,2" d="M407.46,-149.91C407.46,-149.91 407.46,-168.79 407.46,-168.79"/>
<polygon fill="black" stroke="black" points="403.96,-168.79 407.46,-178.79 410.96,-168.79 403.96,-168.79"/>
</g>
<!-- RegisterComponent  -->
<g id="node9" class="node">
<title>RegisterComponent </title>
<polygon fill="#fb8072" stroke="black" points="376.99,-214.8 245.01,-214.8 245.01,-178.8 376.99,-178.8 376.99,-214.8"/>
<text text-anchor="middle" x="311" y="-192.6" font-family="Times,serif" font-size="14.00">RegisterComponent </text>
</g>
<!-- UsersModule&#45;&gt;RegisterComponent  -->
<g id="edge8" class="edge">
<title>UsersModule&#45;&gt;RegisterComponent </title>
<path fill="none" stroke="black" stroke-dasharray="5,2" d="M352.51,-149.91C352.51,-149.91 352.51,-168.79 352.51,-168.79"/>
<polygon fill="black" stroke="black" points="349.01,-168.79 352.51,-178.79 356.01,-168.79 349.01,-168.79"/>
</g>
<!-- UserProfileComponent  -->
<g id="node10" class="node">
<title>UserProfileComponent </title>
<polygon fill="#fb8072" stroke="black" points="227.87,-214.8 78.13,-214.8 78.13,-178.8 227.87,-178.8 227.87,-214.8"/>
<text text-anchor="middle" x="153" y="-192.6" font-family="Times,serif" font-size="14.00">UserProfileComponent </text>
</g>
<!-- UsersModule&#45;&gt;UserProfileComponent  -->
<g id="edge9" class="edge">
<title>UsersModule&#45;&gt;UserProfileComponent </title>
<path fill="none" stroke="black" stroke-dasharray="5,2" d="M328.22,-140.8C272.83,-140.8 186.88,-140.8 186.88,-140.8 186.88,-140.8 186.88,-168.77 186.88,-168.77"/>
<polygon fill="black" stroke="black" points="183.38,-168.77 186.88,-178.77 190.38,-168.77 183.38,-168.77"/>
</g>
<!-- SharedModule -->
<g id="node6" class="node">
<title>SharedModule</title>
<polygon fill="#8dd3c7" stroke="black" points="122.43,-84.8 119.43,-88.8 98.43,-88.8 95.43,-84.8 23.57,-84.8 23.57,-48.8 122.43,-48.8 122.43,-84.8"/>
<text text-anchor="middle" x="73" y="-62.6" font-family="Times,serif" font-size="14.00">SharedModule</text>
</g>
<!-- SharedModule&#45;&gt;UsersModule -->
<g id="edge5" class="edge">
<title>SharedModule&#45;&gt;UsersModule</title>
<path fill="none" stroke="black" d="M100.26,-84.91C100.26,-104.14 100.26,-131.8 100.26,-131.8 100.26,-131.8 318.18,-131.8 318.18,-131.8"/>
<polygon fill="black" stroke="black" points="318.18,-135.3 328.18,-131.8 318.18,-128.3 318.18,-135.3"/>
</g>
</g>
</svg>
