<?xml version="1.0" encoding="UTF-8" standalone="no"?>
<!DOCTYPE svg PUBLIC "-//W3C//DTD SVG 1.1//EN"
 "http://www.w3.org/Graphics/SVG/1.1/DTD/svg11.dtd">
<!-- Generated by graphviz version 5.0.0 (20220707.1540)
 -->
<!-- Title: dependencies Pages: 1 -->
<svg width="478pt" height="247pt"
 viewBox="0.00 0.00 478.00 246.80" xmlns="http://www.w3.org/2000/svg" xmlns:xlink="http://www.w3.org/1999/xlink">
<g id="graph0" class="graph" transform="scale(1 1) rotate(0) translate(4 242.8)">
<title>dependencies</title>
<polygon fill="white" stroke="transparent" points="-4,4 -4,-242.8 474,-242.8 474,4 -4,4"/>
<text text-anchor="middle" x="235" y="-8.2" font-family="sans-serif" font-size="14.00">dependencies</text>
<g id="clust1" class="cluster">
<title>cluster_BookingModule</title>
<polygon fill="none" stroke="black" stroke-dasharray="1,5" points="8,-32.8 8,-230.8 462,-230.8 462,-32.8 8,-32.8"/>
</g>
<g id="clust2" class="cluster">
<title>cluster_BookingModule_declarations</title>
<polygon fill="none" stroke="black" points="132,-40.8 132,-92.8 454,-92.8 454,-40.8 132,-40.8"/>
</g>
<g id="clust6" class="cluster">
<title>cluster_BookingModule_exports</title>
<polygon fill="none" stroke="black" points="71,-170.8 71,-222.8 399,-222.8 399,-170.8 71,-170.8"/>
</g>
<g id="clust5" class="cluster">
<title>cluster_BookingModule_imports</title>
<polygon fill="none" stroke="black" points="16,-40.8 16,-92.8 124,-92.8 124,-40.8 16,-40.8"/>
</g>
<!-- GalleryComponent -->
<g id="node1" class="node">
<title>GalleryComponent</title>
<polygon fill="#ffffb3" stroke="black" points="445.81,-84.8 322.19,-84.8 322.19,-48.8 445.81,-48.8 445.81,-84.8"/>
<text text-anchor="middle" x="384" y="-62.6" font-family="Times,serif" font-size="14.00">GalleryComponent</text>
</g>
<!-- BookingModule -->
<g id="node3" class="node">
<title>BookingModule</title>
<polygon fill="#8dd3c7" stroke="black" points="275.78,-149.8 272.78,-153.8 251.78,-153.8 248.78,-149.8 168.22,-149.8 168.22,-113.8 275.78,-113.8 275.78,-149.8"/>
<text text-anchor="middle" x="222" y="-127.6" font-family="Times,serif" font-size="14.00">BookingModule</text>
</g>
<!-- GalleryComponent&#45;&gt;BookingModule -->
<g id="edge1" class="edge">
<title>GalleryComponent&#45;&gt;BookingModule</title>
<path fill="none" stroke="black" d="M356.88,-84.91C356.88,-104.14 356.88,-131.8 356.88,-131.8 356.88,-131.8 286.08,-131.8 286.08,-131.8"/>
<polygon fill="black" stroke="black" points="286.08,-128.3 276.08,-131.8 286.08,-135.3 286.08,-128.3"/>
</g>
<!-- RoomBookingComponent -->
<g id="node2" class="node">
<title>RoomBookingComponent</title>
<polygon fill="#ffffb3" stroke="black" points="303.79,-84.8 140.21,-84.8 140.21,-48.8 303.79,-48.8 303.79,-84.8"/>
<text text-anchor="middle" x="222" y="-62.6" font-family="Times,serif" font-size="14.00">RoomBookingComponent</text>
</g>
<!-- RoomBookingComponent&#45;&gt;BookingModule -->
<g id="edge2" class="edge">
<title>RoomBookingComponent&#45;&gt;BookingModule</title>
<path fill="none" stroke="black" d="M222,-84.91C222,-84.91 222,-103.79 222,-103.79"/>
<polygon fill="black" stroke="black" points="218.5,-103.79 222,-113.79 225.5,-103.79 218.5,-103.79"/>
</g>
<!-- GalleryComponent  -->
<g id="node5" class="node">
<title>GalleryComponent </title>
<polygon fill="#fb8072" stroke="black" points="391.31,-214.8 264.69,-214.8 264.69,-178.8 391.31,-178.8 391.31,-214.8"/>
<text text-anchor="middle" x="328" y="-192.6" font-family="Times,serif" font-size="14.00">GalleryComponent </text>
</g>
<!-- BookingModule&#45;&gt;GalleryComponent  -->
<g id="edge4" class="edge">
<title>BookingModule&#45;&gt;GalleryComponent </title>
<path fill="none" stroke="black" stroke-dasharray="5,2" d="M270.24,-149.91C270.24,-149.91 270.24,-168.79 270.24,-168.79"/>
<polygon fill="black" stroke="black" points="266.74,-168.79 270.24,-178.79 273.74,-168.79 266.74,-168.79"/>
</g>
<!-- RoomBookingComponent  -->
<g id="node6" class="node">
<title>RoomBookingComponent </title>
<polygon fill="#fb8072" stroke="black" points="246.79,-214.8 79.21,-214.8 79.21,-178.8 246.79,-178.8 246.79,-214.8"/>
<text text-anchor="middle" x="163" y="-192.6" font-family="Times,serif" font-size="14.00">RoomBookingComponent </text>
</g>
<!-- BookingModule&#45;&gt;RoomBookingComponent  -->
<g id="edge5" class="edge">
<title>BookingModule&#45;&gt;RoomBookingComponent </title>
<path fill="none" stroke="black" stroke-dasharray="5,2" d="M207.38,-149.91C207.38,-149.91 207.38,-168.79 207.38,-168.79"/>
<polygon fill="black" stroke="black" points="203.88,-168.79 207.38,-178.79 210.88,-168.79 203.88,-168.79"/>
</g>
<!-- UsersModule -->
<g id="node4" class="node">
<title>UsersModule</title>
<polygon fill="#8dd3c7" stroke="black" points="115.94,-84.8 112.94,-88.8 91.94,-88.8 88.94,-84.8 24.06,-84.8 24.06,-48.8 115.94,-48.8 115.94,-84.8"/>
<text text-anchor="middle" x="70" y="-62.6" font-family="Times,serif" font-size="14.00">UsersModule</text>
</g>
<!-- UsersModule&#45;&gt;BookingModule -->
<g id="edge3" class="edge">
<title>UsersModule&#45;&gt;BookingModule</title>
<path fill="none" stroke="black" d="M97.54,-84.91C97.54,-104.14 97.54,-131.8 97.54,-131.8 97.54,-131.8 158.13,-131.8 158.13,-131.8"/>
<polygon fill="black" stroke="black" points="158.13,-135.3 168.13,-131.8 158.13,-128.3 158.13,-135.3"/>
</g>
</g>
</svg>
