<?xml version="1.0" encoding="UTF-8" standalone="no"?>
<!DOCTYPE svg PUBLIC "-//W3C//DTD SVG 1.1//EN"
 "http://www.w3.org/Graphics/SVG/1.1/DTD/svg11.dtd">
<!-- Generated by graphviz version 5.0.0 (20220707.1540)
 -->
<!-- Title: dependencies Pages: 1 -->
<svg width="1087pt" height="247pt"
 viewBox="0.00 0.00 1087.00 246.80" xmlns="http://www.w3.org/2000/svg" xmlns:xlink="http://www.w3.org/1999/xlink">
<g id="graph0" class="graph" transform="scale(1 1) rotate(0) translate(4 242.8)">
<title>dependencies</title>
<polygon fill="white" stroke="transparent" points="-4,4 -4,-242.8 1083,-242.8 1083,4 -4,4"/>
<text text-anchor="middle" x="539.5" y="-8.2" font-family="sans-serif" font-size="14.00">dependencies</text>
<g id="clust1" class="cluster">
<title>cluster_AppModule</title>
<polygon fill="none" stroke="black" stroke-dasharray="1,5" points="8,-32.8 8,-230.8 1071,-230.8 1071,-32.8 8,-32.8"/>
</g>
<g id="clust6" class="cluster">
<title>cluster_AppModule_bootstrap</title>
<polygon fill="none" stroke="black" points="558,-170.8 558,-222.8 682,-222.8 682,-170.8 558,-170.8"/>
</g>
<g id="clust4" class="cluster">
<title>cluster_AppModule_imports</title>
<polygon fill="none" stroke="black" points="689,-40.8 689,-92.8 1063,-92.8 1063,-40.8 689,-40.8"/>
</g>
<g id="clust2" class="cluster">
<title>cluster_AppModule_declarations</title>
<polygon fill="none" stroke="black" points="559,-40.8 559,-92.8 681,-92.8 681,-40.8 559,-40.8"/>
</g>
<g id="clust7" class="cluster">
<title>cluster_AppModule_providers</title>
<polygon fill="none" stroke="black" points="16,-40.8 16,-92.8 551,-92.8 551,-40.8 16,-40.8"/>
</g>
<!-- AppComponent -->
<g id="node1" class="node">
<title>AppComponent</title>
<polygon fill="#ffffb3" stroke="black" points="672.94,-84.8 567.06,-84.8 567.06,-48.8 672.94,-48.8 672.94,-84.8"/>
<text text-anchor="middle" x="620" y="-62.6" font-family="Times,serif" font-size="14.00">AppComponent</text>
</g>
<!-- AppModule -->
<g id="node2" class="node">
<title>AppModule</title>
<polygon fill="#8dd3c7" stroke="black" points="661.66,-149.8 658.66,-153.8 637.66,-153.8 634.66,-149.8 578.34,-149.8 578.34,-113.8 661.66,-113.8 661.66,-149.8"/>
<text text-anchor="middle" x="620" y="-127.6" font-family="Times,serif" font-size="14.00">AppModule</text>
</g>
<!-- AppComponent&#45;&gt;AppModule -->
<g id="edge1" class="edge">
<title>AppComponent&#45;&gt;AppModule</title>
<path fill="none" stroke="black" d="M620,-84.91C620,-84.91 620,-103.79 620,-103.79"/>
<polygon fill="black" stroke="black" points="616.5,-103.79 620,-113.79 623.5,-103.79 616.5,-103.79"/>
</g>
<!-- AppComponent  -->
<g id="node6" class="node">
<title>AppComponent </title>
<polygon fill="#80b1d3" stroke="black" points="674.44,-214.8 565.56,-214.8 565.56,-178.8 674.44,-178.8 674.44,-214.8"/>
<text text-anchor="middle" x="620" y="-192.6" font-family="Times,serif" font-size="14.00">AppComponent </text>
</g>
<!-- AppModule&#45;&gt;AppComponent  -->
<g id="edge5" class="edge">
<title>AppModule&#45;&gt;AppComponent </title>
<path fill="none" stroke="black" stroke-dasharray="1,5" d="M620,-149.91C620,-149.91 620,-168.79 620,-168.79"/>
<polygon fill="black" stroke="black" points="616.5,-168.79 620,-178.79 623.5,-168.79 616.5,-168.79"/>
</g>
<!-- AppRoutingModule -->
<g id="node3" class="node">
<title>AppRoutingModule</title>
<polygon fill="#8dd3c7" stroke="black" points="1055.28,-84.8 1052.28,-88.8 1031.28,-88.8 1028.28,-84.8 926.72,-84.8 926.72,-48.8 1055.28,-48.8 1055.28,-84.8"/>
<text text-anchor="middle" x="991" y="-62.6" font-family="Times,serif" font-size="14.00">AppRoutingModule</text>
</g>
<!-- AppRoutingModule&#45;&gt;AppModule -->
<g id="edge2" class="edge">
<title>AppRoutingModule&#45;&gt;AppModule</title>
<path fill="none" stroke="black" d="M991,-85.09C991,-107.01 991,-140.8 991,-140.8 991,-140.8 671.84,-140.8 671.84,-140.8"/>
<polygon fill="black" stroke="black" points="671.84,-137.3 661.84,-140.8 671.84,-144.3 671.84,-137.3"/>
</g>
<!-- BookingModule -->
<g id="node4" class="node">
<title>BookingModule</title>
<polygon fill="#8dd3c7" stroke="black" points="908.78,-84.8 905.78,-88.8 884.78,-88.8 881.78,-84.8 801.22,-84.8 801.22,-48.8 908.78,-48.8 908.78,-84.8"/>
<text text-anchor="middle" x="855" y="-62.6" font-family="Times,serif" font-size="14.00">BookingModule</text>
</g>
<!-- BookingModule&#45;&gt;AppModule -->
<g id="edge3" class="edge">
<title>BookingModule&#45;&gt;AppModule</title>
<path fill="none" stroke="black" d="M855,-84.91C855,-104.14 855,-131.8 855,-131.8 855,-131.8 671.74,-131.8 671.74,-131.8"/>
<polygon fill="black" stroke="black" points="671.74,-128.3 661.74,-131.8 671.74,-135.3 671.74,-128.3"/>
</g>
<!-- CoreModule -->
<g id="node5" class="node">
<title>CoreModule</title>
<polygon fill="#8dd3c7" stroke="black" points="783.27,-84.8 780.27,-88.8 759.27,-88.8 756.27,-84.8 696.73,-84.8 696.73,-48.8 783.27,-48.8 783.27,-84.8"/>
<text text-anchor="middle" x="740" y="-62.6" font-family="Times,serif" font-size="14.00">CoreModule</text>
</g>
<!-- CoreModule&#45;&gt;AppModule -->
<g id="edge4" class="edge">
<title>CoreModule&#45;&gt;AppModule</title>
<path fill="none" stroke="black" d="M740,-84.83C740,-101.2 740,-122.8 740,-122.8 740,-122.8 671.97,-122.8 671.97,-122.8"/>
<polygon fill="black" stroke="black" points="671.97,-119.3 661.97,-122.8 671.97,-126.3 671.97,-119.3"/>
</g>
<!-- CacheInterceptor -->
<g id="node7" class="node">
<title>CacheInterceptor</title>
<ellipse fill="#fdb462" stroke="black" cx="465" cy="-66.8" rx="77.54" ry="18"/>
<text text-anchor="middle" x="465" y="-62.6" font-family="Times,serif" font-size="14.00">CacheInterceptor</text>
</g>
<!-- CacheInterceptor&#45;&gt;AppModule -->
<g id="edge6" class="edge">
<title>CacheInterceptor&#45;&gt;AppModule</title>
<path fill="none" stroke="black" d="M465,-84.83C465,-101.2 465,-122.8 465,-122.8 465,-122.8 568.05,-122.8 568.05,-122.8"/>
<polygon fill="black" stroke="black" points="568.05,-126.3 578.05,-122.8 568.05,-119.3 568.05,-126.3"/>
</g>
<!-- HttpCacheService -->
<g id="node8" class="node">
<title>HttpCacheService</title>
<ellipse fill="#fdb462" stroke="black" cx="288" cy="-66.8" rx="81.08" ry="18"/>
<text text-anchor="middle" x="288" y="-62.6" font-family="Times,serif" font-size="14.00">HttpCacheService</text>
</g>
<!-- HttpCacheService&#45;&gt;AppModule -->
<g id="edge7" class="edge">
<title>HttpCacheService&#45;&gt;AppModule</title>
<path fill="none" stroke="black" d="M288,-84.91C288,-104.14 288,-131.8 288,-131.8 288,-131.8 568.29,-131.8 568.29,-131.8"/>
<polygon fill="black" stroke="black" points="568.29,-135.3 578.29,-131.8 568.29,-128.3 568.29,-135.3"/>
</g>
<!-- InterceptorService -->
<g id="node9" class="node">
<title>InterceptorService</title>
<ellipse fill="#fdb462" stroke="black" cx="106" cy="-66.8" rx="82.2" ry="18"/>
<text text-anchor="middle" x="106" y="-62.6" font-family="Times,serif" font-size="14.00">InterceptorService</text>
</g>
<!-- InterceptorService&#45;&gt;AppModule -->
<g id="edge8" class="edge">
<title>InterceptorService&#45;&gt;AppModule</title>
<path fill="none" stroke="black" d="M106,-85.09C106,-107.01 106,-140.8 106,-140.8 106,-140.8 567.94,-140.8 567.94,-140.8"/>
<polygon fill="black" stroke="black" points="567.94,-144.3 577.94,-140.8 567.94,-137.3 567.94,-144.3"/>
</g>
</g>
</svg>
